<svg xmlns="http://www.w3.org/2000/svg" width="196" height="196" viewBox="0 0 196 196"><g fill="#8d5150"><path d="M77.2 77.3c0 3.9 1.2 6.8 3.7 8.8s6.4 3.4 11.8 4l2 .2V65.5c-5.7.2-10 1.4-13 3.4a9.5 9.5 0 0 0-4.5 8.4zm40.1 30.8c-2.4-1.9-6.2-3.1-11.5-3.8l-2.6-.4v25.4c5.7-.4 10.1-1.7 13.1-3.9a10.7 10.7 0 0 0 4.5-9.1c0-3.6-1.2-6.4-3.5-8.2z"/><path d="M98 6.9A91.1 91.1 0 1 0 189.1 98 91.1 91.1 0 0 0 98 6.9zM126.3 133c-5.5 4.2-13.2 6.5-23.2 7v11.2h-8.4v-11.3c-20.2-1.1-31.3-9.8-33.3-26H75a16.5 16.5 0 0 0 6.2 10.7c3.4 2.6 7.8 4.1 13.5 4.6v-25.9l-3.4-.4c-9.2-1.3-16.1-3.9-20.6-8S64 85.3 64 78.2a19.6 19.6 0 0 1 8.1-16.4c5.4-4.1 13-6.4 22.6-6.9V44.8h8.4v10.1q26.4 1.5 30.3 22.2L120.7 79c-1.4-4.2-3.4-7.4-6.2-9.6s-6.6-3.4-11.4-3.9v25.4l3.6.5c9.5 1.2 16.6 3.9 21.1 7.9s6.8 9.6 6.8 16.7a20.5 20.5 0 0 1-8.3 17z"/></g></svg>