<svg xmlns="http://www.w3.org/2000/svg" width="196" height="196" viewBox="0 0 196 196"><path fill="#8d5150" d="M183.4 103.7l7.7-6.7a19 19 0 0 1-2.6 12.1c-1.6 2.5-2.1 4.9-.7 7.7a16.7 16.7 0 0 1 2.3 6.2c.4 3.2.7 6.6-.2 9.5-2.8 9.6-3.8 19-.7 28.7 1.6 5.1-.4 10.9-4.6 13.1s-13.2-1.1-13.4-6.9c-.4-7.4-4.6-13.7-9.4-18.5s-7.1-11.1-5.2-17.8c5-17.5-2-24-10.4-39.1a74.4 74.4 0 0 0-4 6.3 165.7 165.7 0 0 0-7.1 16.2 87.3 87.3 0 0 0-3.6 15.3c-1.5 9.3-2.9 18.7-3.6 28.1-.4 5.6.4 11.3 5.9 15a5 5 0 0 1 1.7 4.1c-.1.6-2.3 1.5-3.6 1.6-3.1.2-6.2.1-8.8.1-1.4-2.8-3.2-5.1-3.6-7.7a72.2 72.2 0 0 1-1-14.7c.3-8 1.1-15.9 1.9-23.9s1.5-13.6 2.3-20.4a21.8 21.8 0 0 0 .1-5.1 4.3 4.3 0 0 0-1.7-2.8c-2.8-1.7-10.2.1-11.7 3.2-4 8.3-7.8 16.8-11.7 25.2-1.1 2.3-2 4.8-3.5 6.7-6.3 7.3-7.5 16.6-9.9 25.4-.5 2 .6 4.4.8 6.6s.8 5.8.1 6a14.1 14.1 0 0 1-8.3 1.2c-5.3-1.4-5.1-1.8-2.2-6.6a6.4 6.4 0 0 0 .7-4.1 21.7 21.7 0 0 1 3.1-14.9c4-6.7 6.2-14.1 7.5-21.9s3.9-13 5.8-19.6c.9-3.3 1.7-6.8 2.7-10.6-12.8 1.2-24.1-2.3-36-7.5-1.2 3.4-2.2 6.7-3.6 9.9s-3.7 7.7-5.7 11.6-3.2 5.3-4.5 8.1C38.3 135.9 38 150 38.3 164a18.2 18.2 0 0 0 2.1 7.1c2.7 5.1 1.8 6.9-4 7h-3.2c-2.8.2-4.1-.8-2.7-3.7.2-.3.5-.8.4-1.1-4.2-9.6-1-20.1-3.7-29.8a32.6 32.6 0 0 0-1.8-3.8 18.7 18.7 0 0 1-1.3-4c-.5-4.6-.9-9.3-1.3-13.9-.1-.5-.5-.9-1.5-1.3l-.9 7.5c-3.7-.9-5.6 1.4-6.7 4.7-.2-3.3-.5-6.5-.7-9.7l-1.2-.9-1.5 2.8c-.8-5.4-5.7-10-2-16.2H6.9l-1.3 2.4-.8-.2c1.4-5.7 2.9-11.5 4.2-17.3.7-3 1.2-6.1 1.7-9.2a18.4 18.4 0 0 1 .5-3.5c3.9-8.1 2.7-16.2.9-24.5a20 20 0 0 1 1-11.1c3.5-8.7 9.2-15.6 17.8-19.8 11.8-5.8 24-6.9 36.8-3.9 5.1 1.2 10.5 1.5 15.7 2 8.5.8 16.8.7 24.7-3.5 1.1-.6 2.5-.7 3.7-1.2 10.1-4.3 18 .5 24.8 7.1 4.8 4.7 8.4 10.7 12.6 16 6.8 8.5 13.6 16.9 16.9 27.7 2.8 9.2 6.2 18.3 9.3 27.5 1.8 5.4 3 2.8 8 6.5M40.3 93.8l-1.2-.3c-1 5.5-2.1 11-3.2 16.5l1 .2c2.3-5.2 4.7-10.4 3.4-16.4"/></svg>