<svg xmlns="http://www.w3.org/2000/svg" width="75.9" height="76" viewBox="0 0 75.9 76"><g fill="#fff"><path d="M25.4 0h25.7A38 38 0 0 1 60 1a19.5 19.5 0 0 1 13.8 11.7 29.9 29.9 0 0 1 2 11.1c0 .5.1 1.1.1 1.7v25c0 .2-.1.4-.1.6a61.5 61.5 0 0 1-.7 7.5c-1.5 8.2-6.3 13.6-14.3 16.1a46.1 46.1 0 0 1-11.1 1.2H29.9a66.1 66.1 0 0 1-12.6-.7c-8.2-1.6-13.6-6.3-16-14.3C.2 57.4.1 53.7 0 50c0-8.4 0-16.8.1-25.2a38.4 38.4 0 0 1 .9-8.9C2.7 9.5 6.4 4.8 12.6 2.1a30.3 30.3 0 0 1 11.1-2zm43.5 38h.1c0-3.2.1-6.4 0-9.5a77.7 77.7 0 0 0-.7-9.7c-.9-5.8-4.2-9.5-9.9-11a36.6 36.6 0 0 0-9.3-.8H28.3a77.5 77.5 0 0 0-9.6.7c-5.7.9-9.5 4.2-10.9 9.9a36.7 36.7 0 0 0-.9 9.3c-.1 6.9-.1 13.8 0 20.8a61.9 61.9 0 0 0 .6 9.6 12.5 12.5 0 0 0 10 10.9 35.5 35.5 0 0 0 9.2.9h20.8a61.1 61.1 0 0 0 9.6-.6c5.8-.9 9.5-4.2 11-10a32.2 32.2 0 0 0 .8-8.2c.1-4.1 0-8.2 0-12.3z"/><path d="M57.5 38a19.6 19.6 0 1 1-19.6-19.6A19.6 19.6 0 0 1 57.5 38zm-32.2-.1a12.6 12.6 0 0 0 25.2.2A12.5 12.5 0 0 0 38 25.4a12.6 12.6 0 0 0-12.7 12.5zm37.5-20.2a4.6 4.6 0 1 1-9.2 0 4.7 4.7 0 0 1 4.6-4.6 4.6 4.6 0 0 1 4.6 4.6z"/></g></svg>