<svg height="3.8in" viewBox="0 0 722.9 276.7" width="10in" xmlns="http://www.w3.org/2000/svg"><path d="m1.5 1.5h296.1v273.66h-296.1z" fill="none" stroke="#f1f1f1" stroke-miterlimit="10" stroke-width="3.05"/><g fill="#f1f1f1"><path d="m230.7 180.6 9.6-8.4a23.3 23.3 0 0 1 -3.3 15.2c-2 3.2-2.7 6.2-.8 9.7a23.6 23.6 0 0 1 2.9 7.9c.4 3.9.8 8.2-.3 11.9-3.6 12.1-4.8 24-.9 36.2 2 6.4-.5 13.7-5.8 16.6s-16.6-1.5-16.9-8.7c-.4-9.4-5.8-17.4-11.8-23.4s-8.9-14-6.6-22.4c6.3-22.1-2.5-30.2-13-49.3-2.3 3.4-4 5.5-5.1 7.9-3.2 6.7-6.6 13.4-9 20.5a105 105 0 0 0 -4.5 19.2c-1.8 11.8-3.6 23.6-4.5 35.4-.5 7.1.4 14.3 7.4 18.9 1.3.9 2.2 3.5 2.1 5.2s-2.9 1.9-4.5 2c-3.9.3-7.9.1-11.1.1-1.7-3.5-4-6.4-4.6-9.6a96.4 96.4 0 0 1 -1.2-18.6c.4-10 1.4-20.1 2.4-30.1s1.9-17.1 2.8-25.7a22.9 22.9 0 0 0 .3-6.4 5.8 5.8 0 0 0 -2.3-3.6c-3.5-2.1-12.8.2-14.6 4-5.2 10.5-9.9 21.3-14.8 31.9-1.4 2.8-2.5 6-4.5 8.3-7.8 9.3-9.4 21-12.4 32.1-.6 2.5.7 5.5 1 8.3s1 7.2.1 7.6c-3.1 1.3-7.2 2.3-10.4 1.4-6.7-1.7-6.5-2.2-2.8-8.2a8.5 8.5 0 0 0 .9-5.2 27.6 27.6 0 0 1 3.9-18.9c5.1-8.3 7.8-17.6 9.5-27.4s4.8-16.5 7.2-24.7c1.2-4.3 2.2-8.6 3.4-13.5-16 1.5-30.3-2.9-45.3-9.4-1.5 4.3-2.8 8.5-4.6 12.4s-4.7 9.8-7.2 14.6-3.9 6.8-5.6 10.3c-8 16.5-8.4 34.2-8 52a19.9 19.9 0 0 0 2.6 8.8c3.4 6.5 2.2 8.8-5.1 8.9h-4c-3.6.2-5.1-1-3.4-4.7.3-.4.6-1 .5-1.3-5.3-12.1-1.3-25.3-4.7-37.6a41.6 41.6 0 0 0 -2.2-4.8 22.4 22.4 0 0 1 -1.6-5c-.7-5.9-1.1-11.7-1.7-17.6-.1-.6-.6-1.1-1.8-1.6l-1.2 9.5c-4.6-1.2-7.1 1.7-8.5 5.8l-.9-12.2-1.5-1-1.8 3.5c-1-6.9-7.2-12.6-2.6-20.5h-1.8l-1.6 3.1-1-.2c1.8-7.3 3.7-14.7 5.4-22 .8-3.8 1.4-7.7 2-11.6.3-1.5.1-3.1.7-4.4 4.9-10.2 3.3-20.4 1-30.9a25.8 25.8 0 0 1 1.4-13.9c4.3-10.9 11.5-19.6 22.4-24.9 14.9-7.3 30.3-8.8 46.4-5 6.4 1.6 13.2 1.9 19.8 2.5 10.6 1 21.2.9 31-4.3 1.5-.8 3.2-1 4.7-1.6 12.8-5.3 22.8.7 31.3 9 6.1 5.9 10.6 13.4 15.9 20.1 8.6 10.7 17.2 21.4 21.2 34.9 3.6 11.7 7.9 23.2 11.8 34.8 2.2 6.7 3.8 3.5 10.2 8.1zm-180.4-12.5-1.5-.3c-1.4 6.9-2.8 13.8-4.1 20.8l1.2.2c2.9-6.5 6-13.1 4.4-20.7z"/><circle cx="253.9" cy="30.6" r="29.1"/><path d="m339.2 184.9 14.7 12.1a46.1 46.1 0 0 0 5-18.6c.1-1.2-1-2.5-1.6-3.7h7.3c-3.5 1.8-2.8 5-3.5 7.5-1.5 5.1-3.1 10.1-4.6 15.1-.1.6-.2 1.6.2 1.9 5.1 4.1 10.3 8.1 15.5 12.1.5.5 1.2.6 2.5 1.1-4.8.6-8.8.3-12.2-2.2s-6.4-4.8-9.3-7c-2.2 2.1-4.2 4.2-6.5 6-4.8 3.9-10.4 4.8-16.3 3.6s-9-4-10.2-9.3.1-10.4 4.5-14.1a60.7 60.7 0 0 1 6.4-4.5 59.3 59.3 0 0 1 -4.7-5.3c-3-3.9-3.5-8.2-1-12.5s6.7-6 11.9-5.2 8 3.5 9.3 8.2-.3 8.8-3.9 12.1c-1 .9-2.2 1.7-3.5 2.7zm12.4 16.8-14.5-12.1c-3.8-3.1-3.9-3-7.7 0l-.7.7c-4.5 4.2-5.4 10.2-2.1 14.9s10.1 7.1 15.4 4.1c3.3-1.9 6.1-4.8 9.6-7.6zm-8.1-27.7c-.6-3.7-1.8-6.6-4.7-8.5s-4.8-2.2-7.3-.8a6.1 6.1 0 0 0 -3.1 6.4 14.2 14.2 0 0 0 2.4 5.7 17.6 17.6 0 0 0 3 3.1c3.3 3.2 4.8 3.1 7.5-.7a33.8 33.8 0 0 0 2.2-5.2z"/><path d="m531.9 42.5c6.6 8.4 10.7 18.6 19 25.7-4 .5-7.8-.2-10.4-4-4.3-6.4-8.7-12.8-12.8-19.3-1.3-2-2.7-2.9-5.1-2.4a9.9 9.9 0 0 0 -.2 1.8v17.8c0 2.3.3 4.5 3 6.1h-11c2.9-1.8 2.9-4.3 2.9-7v-37.9c0-2.2-.4-4.1-2.5-5.6 7 .2 14.1-1.1 20.9.9 4.6 1.4 7.6 4.3 8 9.3s-1.3 9.6-6.2 12.2a52.2 52.2 0 0 1 -5.6 2.4zm-9.4-2.6a59.4 59.4 0 0 0 8.6-.5c4.4-.8 7.1-4.3 7.6-9a8.5 8.5 0 0 0 -4.9-8.8c-3.6-1.5-7.3-1.7-11.3-1.5z"/><path d="m581.9 52.7h-26.4c.7 6.8 4.5 11.7 9.8 13.1s11.4-.6 16-6.9v4.9a1.6 1.6 0 0 1 -.5 1c-6.1 5.8-20.1 5.3-25.8-1s-5.6-12.3-2.9-19.1 8-9.1 14.7-9.1c9.6-.1 15.5 6.6 15.1 17.1zm-4.8-2.8c.5-6.1-4.1-11.6-9.7-11.9s-11.7 4.9-11.8 11.9z"/><path d="m722.7 52.7h-26c-.5 4.9 3.4 10.9 8.2 12.7a13.9 13.9 0 0 0 17.2-6.5v5.7c-4.5 2.9-9.4 4.7-14.9 4.2s-12-3.4-14.4-9.9-1.8-13.8 3.8-19.2 11.2-5.2 17.4-3 8.2 7.2 8.8 13.2a15.5 15.5 0 0 1 .1 2.2 3.9 3.9 0 0 1 -.2.6zm-4.5-2.8c-.4-7.9-5.3-12.5-12.2-11.8-5.1.5-9.9 6.6-9.3 11.8z"/><path d="m674.7 37.6 7.5-2.4c0 9.3 0 18.3.1 27.3 0 1.9.9 3.7 1.4 5.6h-6.3c-.1-1-.2-2.1-.3-3.4-.4.2-.7.2-.8.4-4 4.5-9 4.7-14.1 2.9s-6.9-6.2-7.2-11.2-.1-9.6-.2-14.4c0-2-.2-3.8-2.6-4.8l7.6-2.4c0 6.4-.1 12.5 0 18.7a25.6 25.6 0 0 0 .5 5.5 8.5 8.5 0 0 0 8.9 6.8 9.1 9.1 0 0 0 8-8.5c.1-5.2 0-10.4 0-15.6 0-1.9-.3-3.6-2.5-4.5z"/><path d="m608.4 38v5a34 34 0 0 0 -3.8-3.2 11.9 11.9 0 0 0 -10.5-1.2c-2.1.8-3.5 2.2-3.6 4.5s1.4 3.4 3.2 4.2 6.1 2.2 9.1 3.5a22.1 22.1 0 0 1 5.3 2.7c4.5 3.4 4.5 8.8.1 12.2s-10.3 4.1-15.9 1.8a58.4 58.4 0 0 1 -6.1-3.1v-4.6a83.6 83.6 0 0 0 7.5 5.3 9.3 9.3 0 0 0 9.4-.1 7.9 7.9 0 0 0 3.3-4.1c.5-1.9-1-3.5-2.7-4.5a41.6 41.6 0 0 0 -4.8-2.2c-2.8-1.1-5.7-2-8.4-3.2s-4.9-3.8-4.7-7.3 2.3-6 5.8-7.1a19 19 0 0 1 13.3.1z"/><path d="m646.5 59.9c0 1.5 0 3-.1 4.5a1.4 1.4 0 0 1 -.6 1.2c-10.2 6.6-22.3 2.1-26.5-5.8-5.5-10.4 1.7-23.6 13.5-24.1a23.8 23.8 0 0 1 6.5.5 34.4 34.4 0 0 1 5.8 2.2v5.1c-1.8-1.4-3.3-3.3-5.2-4.3-7.5-3.6-15.7.8-17.3 9s3.7 16.9 11.8 17.9c5.3.7 9.3-1.4 12.1-6.2z"/><path d="m319.8 68.5c2.7-1.3 3.2-3.4 3.2-5.7v-39.3c0-2.2-.5-4.1-3.1-5.4h10.2c-.6 1.1-1.8 2.3-1.8 3.5-.2 6-.1 12.1-.1 18.3h24.6v-3.7c0-4.3-.1-8.7 0-13a5.3 5.3 0 0 0 -2.9-5.1h10.5c-2.4 1.4-2.5 3.7-2.5 5.9v38.3c0 2.3.1 4.6 3.1 6.2h-11.1c3-1.7 2.9-4.4 2.9-7.2-.1-6.1 0-12.1 0-18.4h-24.8v4.4c0 5.1-.1 10.2 0 15.3 0 3.2.5 4.2 2.9 5.9z"/><path d="m495.8 53.1h-26.2c-.1 5.4 3.6 11 8.4 12.7 6.3 2.3 11.7.4 17.2-6.4 0 1.9.1 3.5 0 5a1.2 1.2 0 0 1 -.4.8c-5.2 4.8-16.9 5.4-23.2 1.2s-8.5-11.5-6.4-19 7.2-11.1 14.5-11.4c10.3-.5 16.5 6 16.1 17.1zm-26.3-2.9h21.7c-.5-7.5-4.9-12-11.3-11.8s-10.3 5.5-10.4 11.8z"/><path d="m383.8 35.9c9.8.1 16.8 6.8 16.7 16.2a16.8 16.8 0 0 1 -17.4 17.1c-9.6-.1-16.6-7-16.6-16.4s7.3-16.9 17.3-16.9zm12 16.4c-.2-.9-.3-2.4-.7-3.8-1.4-5.9-6-9.9-11.5-10.1s-9.6 3-11.3 8.5a16.1 16.1 0 0 0 2.4 15 11 11 0 0 0 17.3 1.2c2.7-2.9 3.6-6.4 3.8-10.8z"/><path d="m455.4 38.4v5a34 34 0 0 0 -3.8-3.2 11.7 11.7 0 0 0 -10.3-1.2 4.7 4.7 0 0 0 -3.7 4.3c-.2 2.3 1.3 3.6 3.2 4.4s6.1 2.2 9.1 3.5a26.2 26.2 0 0 1 5.5 2.9c4 3.1 4.1 8 .5 11.4s-11.2 4.9-16.6 2.4c-2-.9-3.9-2-6-3.1v-4.6c2.4 1.7 4.8 3.9 7.6 5.3a9.6 9.6 0 0 0 10.7-1c2.5-1.9 2.7-4.9.2-6.9a28.9 28.9 0 0 0 -5.8-3c-2.8-1.2-5.8-2-8.6-3.3s-4.8-3.8-4.5-7.4a7.6 7.6 0 0 1 5.6-6.9 19.9 19.9 0 0 1 13.6.1z"/><path d="m428.5 37.4-2.2 4.3a5 5 0 0 0 -6.6-1.4c-2.5 1.3-5 2.5-4.8 6.2.3 5.4 0 10.8.2 16.1 0 2 .9 3.9 1.5 5.9h-9.3c2.5-1.7 2.7-3.9 2.6-6.3 0-6.1 0-12.2.1-18.3 0-2.2-.3-4.2-3.2-5.5l8-2.5.4 4.3c3.8-4.4 8-5.4 13.3-2.8z"/><path d="m413.8 170.4c-1.3-5.1-5.2-6-9.5-6.2a21.6 21.6 0 0 0 -6.2.4c-4.1 1.1-6.1 4.1-6.6 8.2a7.5 7.5 0 0 0 4.4 8c3.5 1.8 7.2 3.2 10.8 4.8l3.4 1.5c5.9 3.1 8.7 8.1 7.9 14.1s-5.2 10.5-11.7 11.8a25.2 25.2 0 0 1 -12.2-.5c-2.1-.7-4.2-1.2-6.5-1.8v-8.6c3.8 8.4 12.3 11.2 19.9 7.1 5.7-3.1 8.2-12.6.8-17-3.1-1.8-6.5-3-9.7-4.5-1.4-.6-2.9-1.1-4.3-1.8-6.2-3-8.7-7.4-7.8-13.6s5.2-9.7 11.4-10.4a50.4 50.4 0 0 1 11.6.5c4.4.6 4.3.8 4.3 5.3z"/><path d="m469.2 212.8h-9.4c2.6-1.8 2.8-4 2.8-6.4-.1-6.4 0-12.9 0-19.3 0-1.9-.1-3.8-2.5-4.8l7.3-2.4.3 3.7 1.4-.9c4.7-3.5 9.7-3.8 14.8-1.5s6.9 6.4 7 11.6-.1 8.8.1 13.2a33.2 33.2 0 0 0 1.5 6.8h-9.1c2.6-1.9 2.7-4.4 2.6-7 0-4.6.1-9.2-.1-13.7a9.4 9.4 0 0 0 -6.2-9 9 9 0 0 0 -10.1 3.1 11.8 11.8 0 0 0 -1.9 5.8 147.9 147.9 0 0 0 -.1 14.9c.1 1.9 1.1 3.9 1.6 5.9z"/><path d="m557 182.2 7.6-2.4a29.9 29.9 0 0 0 0 3c.1 6.8-.1 13.5.5 20.2.4 5.1 4.4 8.3 8.9 7.8a9.1 9.1 0 0 0 8.1-9.3v-14.6c0-2-.3-3.7-2.6-4.6l7.5-2.5c0 9.2-.1 18.1.1 26.9 0 2 .9 4 1.5 6.1h-6.4c0-1.1-.1-2.2-.2-3.5s-.8.3-1 .6c-3.7 4.3-8.5 4.5-13.4 2.9s-7.2-5.3-7.5-10.1-.3-10.6-.4-15.8c-.1-1.9-.3-3.7-2.7-4.7z"/><path d="m598 189.1v-5.6a21.2 21.2 0 0 1 16.3-2.8c4.9 1.2 7.6 4.5 7.8 9.6s0 11 .2 16.5c.1 2 1.1 4 1.6 6h-6.3c-.1-1-.2-2-.3-3.3l-1.7 1.1a14.8 14.8 0 0 1 -14.1 2 7.3 7.3 0 0 1 -3-12.2 24.2 24.2 0 0 1 7.4-4.8 50.1 50.1 0 0 1 9.3-2.9c2.4-.5 2.4-1.7 1.8-3.5a9.5 9.5 0 0 0 -16-3.8c-.9 1-1.7 2.1-3 3.7zm19.4 5.6c-5.2 1.1-10 2.4-13.9 5.8-1.6 1.4-2.6 3.1-2.1 5.3a5.6 5.6 0 0 0 4.3 4.4 9.1 9.1 0 0 0 8.7-1.7c1.2-1 2.7-2.3 2.9-3.6.4-3.3.1-6.6.1-10.2z"/><path d="m425.6 188.4v-4.8a20.6 20.6 0 0 1 16.2-2.9c5.1 1.2 7.8 4.5 8 9.7s.1 10.7.2 16c0 2.4.2 4.7 2.8 6.4h-7.5c-.1-1.1-.2-2.1-.4-3.5a15.9 15.9 0 0 1 -12 4.2c-4.8-.4-8-2.7-8.6-6.7a7.5 7.5 0 0 1 4.1-8.4 110.3 110.3 0 0 1 13.4-5.4c3.6-1.2 4-1.6 2.4-5.2-3-6.6-12.1-7.1-16.7-1l-1.4 1.9zm19.5 6.2c-5.2 1.3-10 2.4-13.8 5.8-1.6 1.5-2.7 3.1-2.2 5.4a5.3 5.3 0 0 0 4.3 4.4 9 9 0 0 0 8.9-1.8c1.1-.9 2.5-2.2 2.7-3.5.4-3.2.1-6.6.1-10.3z"/><path d="m661.7 221.4c.6.9.9 1.6 1.3 2.1s3.6 2 4.6 0 2.9-6.8 4.3-10.3a3.4 3.4 0 0 0 -.5-2.1c-3.7-8.5-7.5-17.1-11.3-25.5-.8-1.8-2.2-3.2-3.2-4.7h8.2c.3 1.8.2 3.6.8 5.1 2.7 6.7 5.7 13.3 8.7 20.2a18.5 18.5 0 0 0 1-2c2.6-6.3 5.2-12.6 7.7-18.9.5-1.3.2-2.8.3-4.5h5.6c-1.2 1.9-2.7 3.7-3.5 5.7-5.2 12.6-10.2 25.3-15.3 37.9-1.9 4.6-5.4 6.3-9.2 4.3-1.4-.8-2.1-1.6-1.2-3.3s1.1-2.5 1.7-4z"/><path d="m537.2 183.2h-4.2l-.2-2.3 3.9-.3c1.4-4.5.5-9.3-2.2-11.1l1.8-.7 5.8-1.8v13.6h8.5l.2 2.5h-8.7v4.6c0 5.8-.1 11.6.1 17.5 0 1.9-.1 4.3 2.4 5.1s3.8-1 5.1-3.7a14.7 14.7 0 0 1 .6-1.4c1.2 3.9.5 5.8-2.5 7.2s-7.9.3-9.2-2.6a13.5 13.5 0 0 1 -1.3-5.6c-.2-6.9-.1-13.8-.1-21z"/><path d="m529.4 204.5v4.5a1.7 1.7 0 0 1 -.5 1.2c-10.8 7.1-25.6 2.1-28.2-10-2.1-10.1 5.2-19.3 15.6-20 4.1-.3 7.6 1.1 11.2 2.6a1.4 1.4 0 0 1 .7 1.1 24 24 0 0 1 -.2 4.6 11.6 11.6 0 0 0 -8.6-5.7c-6.7-.8-12.2 2.9-13.6 9.4a15.8 15.8 0 0 0 4.7 15.6c4.8 4.5 14.8 4.8 18.9-3.3z"/><path d="m653.2 181.6c-.7 1.5-1.3 2.8-2 4.1-3.9-2.6-8.5-1.8-11.1 2a4.6 4.6 0 0 0 -.4 2.1v16.8c0 2.3.2 4.5 2.8 6.2h-10.4c3.2-2.4 2.7-5.5 2.7-8.5v-15.4c0-3.8-.1-4-2.8-6.4l7.7-2.3v4.6c3.9-4.6 8.2-5.8 13.5-3.2z"/><path d="m345.2 142.9c-14.5 0-25.5-11.2-25.4-25.8a26.3 26.3 0 0 1 26.6-26.6c14.7.1 25.7 11.3 25.7 26.2s-11.6 26.2-26.9 26.2zm-2.4-49.7c-4.2 0-9.3 3.2-13 8.3-7 9.8-6.5 21.3 1 30.9s20.8 10.6 29.6 1.6 8.7-20.7 2.6-30.1c-4.2-6.3-9.7-10.6-20.2-10.7z"/><path d="m379.1 111.4 7.5-2.4v3.2c2.9-1.1 5.8-2.7 8.7-3 8.6-.9 14.5 4.7 14.7 13.4.1 4.5-.1 9.1.1 13.6.1 2 1 3.8 1.5 5.8h-9.1c3.2-2.5 2.6-5.9 2.6-9s0-8.8-.4-13.2a9 9 0 0 0 -7-7.8 9.5 9.5 0 0 0 -9.9 4.4 8.4 8.4 0 0 0 -1.1 3.9c-.1 5.5-.2 11 0 16.5.1 1.8 1.1 3.5 1.7 5.2h-9.3c2.7-2.2 2.6-5.1 2.6-7.9-.1-5.7.1-11.4-.1-17.1 0-1.9.4-4.4-2.5-5.6z"/><path d="m462.1 121.2c.2-3.9-1.8-7.4-5.2-8.6-6-2.2-10.5 0-13.9 5.2v-5.1a22 22 0 0 1 14.7-3.2c5.8.8 9.3 4.7 9.4 10.8s-.1 10.8.2 16.1c0 1.9 1 3.7 1.5 5.5h-6.4l-.2-3.5a15.3 15.3 0 0 1 -12.4 4.2c-4.3-.3-7.2-2.3-8.1-5.8s.4-6.9 4-9.4a8.6 8.6 0 0 1 2.3-1.3l12.3-4.3zm.2 2.7c-5 1.1-9.6 2.3-13.5 5.5-1.9 1.6-3.1 3.4-2.5 5.9s2.8 3.9 5.4 4.4a12.9 12.9 0 0 0 3.4 0c2.8-.4 7.1-3.5 7.2-5.4.1-3.4 0-6.8 0-10.4z"/><path d="m539.4 109.4c9.8.1 16.7 6.7 16.6 16.2s-7.3 17.1-17.3 17.1-16.8-7.1-16.6-16.6 7.3-16.7 17.3-16.7zm-12.9 15.6c.9 3 1.3 5.7 2.4 8.1 2.1 4.4 5.7 7.1 10.7 7.1a10.4 10.4 0 0 0 9.9-6.4c2.7-5.8 2.5-11.5-1.2-16.9s-14.6-6.8-18.8.2c-1.5 2.4-2 5.3-3 7.9z"/><path d="m418.4 112.5v-2.4l3.6-.3c1.5-4.3.6-9.5-2.3-11.1l7.8-2.5v13.7h8.5v2.5h-8.5v21.8c.1 2-.1 4.4 2.4 5.3s3.9-1 5.2-4l.4-.8c1.3 3.4.6 5.5-2.3 6.8s-8 .4-9.4-2.6a12.1 12.1 0 0 1 -1.1-4.9c-.2-7.1-.1-14.2-.1-21.5z"/><path d="m498.2 110.8-1.9 4.1c-4-2.6-8.5-1.8-11.1 2a4.3 4.3 0 0 0 -.4 2.3c-.1 5.5 0 11.1-.1 16.6 0 2.3.3 4.5 2.8 6.2h-10.3c3.2-2.4 2.6-5.7 2.6-8.7v-15.4c0-3.5-.1-3.8-2.8-6.2l7.6-2.3.3 4.5c3.8-4.7 8-5.6 13.3-3.1z"/><path d="m513.4 142.1h-9.5c3.1-2.1 2.9-4.8 2.9-7.4v-18.4c0-1.9-.1-3.9-2.5-4.9l7.4-2.4c0 1 .1 1.9.1 2.7 0 8.1-.1 16.1.1 24.1 0 2.1.9 4.1 1.5 6.3z"/><path d="m508.4 97.8a4 4 0 0 1 3.6 3.7 3.7 3.7 0 0 1 -3.7 3.5 3.6 3.6 0 0 1 -3.5-3.6 3.8 3.8 0 0 1 3.6-3.6z"/><path d="m421 249.4a61.7 61.7 0 0 1 1.9-7.4 6.2 6.2 0 0 1 6-4.3c3-.1 5.1 1.6 6.2 4.3a18.6 18.6 0 0 1 0 15 6.4 6.4 0 0 1 -6.1 4.2 6.3 6.3 0 0 1 -6.1-4.3 58.8 58.8 0 0 1 -1.9-7.5zm2.9 0c.5 2.2.8 4.3 1.4 6.4a3.7 3.7 0 0 0 3.6 3c2.1.1 3.2-1.2 3.8-2.9a18.2 18.2 0 0 0 0-13 4 4 0 0 0 -3.8-2.9 3.8 3.8 0 0 0 -3.6 3c-.6 2.1-.9 4.2-1.4 6.4z"/><path d="m418.7 250.6a15.3 15.3 0 0 1 -1.5 6.5 6.5 6.5 0 0 1 -6.1 4.1 6.3 6.3 0 0 1 -6-4.1 18.6 18.6 0 0 1 0-15.3c1.1-2.6 3.1-4.2 6-4.1a6.5 6.5 0 0 1 6.1 4.1c1 2.1 1.5 4.4 1.5 8.8zm-2.6-1.1c-.2-3.4-.7-5.8-1.7-7.5s-4.9-2.7-6.5.1a4.1 4.1 0 0 0 -.9 2.2 57.7 57.7 0 0 0 -.4 8.3 10.9 10.9 0 0 0 1.5 4.5c1.4 2.4 4.4 2.4 6.1 0a4.8 4.8 0 0 0 .9-1.9c.4-1.9.7-3.8 1-5.7z"/><path d="m324.7 250.5v8.1h9.1c1.2 0 1.5.7 1.3 1.6a1.7 1.7 0 0 1 -1.1.9c-3.6.1-7.3 0-11 0-.8 0-1.2-.3-1.2-1.2v-20.8c0-.9.4-1.3 1.3-1.3h10.8c1.2.1 1.4.7.8 2.5h-10v7.7h8c.9 0 1.4.3 1.4 1.3s-.6 1.2-1.4 1.2z"/><path d="m350.4 241a46.2 46.2 0 0 0 -6-.7 3.4 3.4 0 0 0 -.8 6.6l5 2.1a6.3 6.3 0 0 1 3.5 7.3c-.5 2.6-2.7 4.4-5.7 4.8a12.8 12.8 0 0 1 -7.2-1.1c-.7-.4-1.5-.7-1-1.9s1.2-1 2.1-.5a8.9 8.9 0 0 0 5.8 1 3.7 3.7 0 0 0 3-3 3.2 3.2 0 0 0 -1.7-3.8c-1.7-.9-3.5-1.6-5.2-2.4s-3.5-2.3-3.7-4.6 1.3-6 4.9-6.9a10.9 10.9 0 0 1 6.2.5c1.8.7 1.9 1.4.8 2.6z"/><path d="m389.8 258.7h5.1c1.4 0 2.8.1 4.2 0s1 .5 1 1.2-.2 1.1-1 1.1h-11.8c-.4 0-1-.3-1-.5a3.6 3.6 0 0 1 .3-1.9c2.2-2.9 4.5-5.7 6.8-8.6a40.8 40.8 0 0 0 2.5-3.3c1.3-1.9 1.6-4 .5-5.2s-3.3-1.7-5.2-1.3a23.3 23.3 0 0 0 -3.3 1.4c-1.5-1.3-1.4-2.1.5-3a11 11 0 0 1 6.7-.7c4.4.9 6.2 5.1 3.8 9.1a91.2 91.2 0 0 1 -6 7.9z"/><path d="m449.3 248.1c3.5 1.9 4.9 4.8 3.9 8.3s-3.9 5-7.5 4.8a31 31 0 0 1 -5.3-1c-.7-.2-1.2-.6-.8-1.4s.7-1.2 1.7-.9a16.3 16.3 0 0 0 4.9.9c2.7.1 4.4-1.7 4.4-4.4s-1.3-4.3-4.2-4.5h-.9c-.8 0-1.6.1-1.6-1.2s.8-1.1 1.6-1.2c2.4-.1 3.9-1.3 4.3-3.4s-.8-4-3-4a17.7 17.7 0 0 0 -4.6.7c-1.1.3-1.6.1-2-.8s.5-1.5 1.1-1.5a37.9 37.9 0 0 1 6.7-.6 5 5 0 0 1 4.6 4.2c.4 2.7-.3 4.2-2.7 5.6z"/><path d="m364.1 240.3v15.5c0 1.3-.1 2.6 0 3.9s-.4 1.4-1.4 1.4-1.6-.3-1.6-1.4c.1-5.9 0-11.7 0-17.6v-1.8h-5.4c-1 0-1.7 0-1.6-1.3s.6-1.2 1.5-1.2h14c1 0 1.5.3 1.5 1.3s-.6 1.2-1.4 1.2z"/><path d="m374.6 259.3c.2 1.2-.1 1.8-1.5 1.8s-1.7-.6-1.7-1.8.2-1.9 1.6-1.9 1.9.6 1.6 1.9z"/></g></svg>